<svg width="195" height="40" viewBox="0 0 195 40" fill="none" xmlns="http://www.w3.org/2000/svg">
<g clip-path="url(#clip0_1124_521)">
<path fill-rule="evenodd" clip-rule="evenodd" d="M10.0864 0H30.2591C32.8791 0.00539822 35.3948 1.01849 37.2762 2.82589C39.1576 4.63329 40.258 7.09391 40.3454 9.6895H24.1628C23.7175 9.69902 23.2853 9.84102 22.9225 10.0971C22.5596 10.3531 22.2827 10.7113 22.1278 11.1253L18.2354 21.6957L14.4408 11.3984C14.3571 11.0455 14.1867 10.7185 13.9449 10.4465C13.7031 10.1745 13.3972 9.96593 13.0545 9.83924C12.8589 9.75893 12.6522 9.70845 12.4413 9.6895C12.1397 9.66847 11.8369 9.71049 11.5527 9.81282C11.1948 9.94225 10.8767 10.1611 10.6291 10.4481C10.3816 10.7351 10.213 11.0807 10.1397 11.4512L6.34508 21.7485L2.45272 11.1782L0.675386 6.40388C1.41204 4.52191 2.70428 2.90398 4.38325 1.76149C6.06222 0.619 8.04984 0.00509659 10.0864 0V0ZM40.3543 14.0938V29.9934C40.3473 32.6452 39.2814 35.1863 37.3897 37.0614C35.498 38.9365 32.9343 39.993 30.2591 40H10.0864C7.41264 39.9907 4.85124 38.9332 2.96145 37.0583C1.07167 35.1835 0.00702587 32.6436 0 29.9934L0 17.168L4.22116 28.6633C4.31009 29.004 4.48107 29.3182 4.71943 29.579C4.95779 29.8399 5.25642 30.0395 5.58971 30.1608C5.87506 30.2586 6.17689 30.3005 6.47838 30.2841C6.69349 30.2726 6.9059 30.231 7.10933 30.1608C7.43944 30.0392 7.73568 29.8417 7.97362 29.5844C8.21157 29.3271 8.3844 29.0174 8.47787 28.6809L12.2991 18.2603L16.1204 28.6633C16.2093 29.004 16.3803 29.3182 16.6187 29.579C16.857 29.8399 17.1557 30.0395 17.489 30.1608C17.7743 30.2586 18.0761 30.3005 18.3776 30.2841C18.5807 30.2694 18.781 30.2279 18.973 30.1608C19.3031 30.0392 19.5994 29.8417 19.8373 29.5844C20.0753 29.3271 20.2481 29.0174 20.3416 28.6809L25.7713 14.0938H29.6815V28.1876C29.6838 28.764 29.9158 29.316 30.3269 29.7235C30.7381 30.1311 31.295 30.361 31.8765 30.3634C32.4579 30.361 33.0148 30.1311 33.426 29.7235C33.8371 29.316 34.0691 28.764 34.0715 28.1876V14.0938H40.3988H40.3543Z" fill="url(#paint0_linear_1124_521)"/>
<path d="M72.2931 10.5792L69.0673 22.1801L65.6015 10.5792H60.9715L57.5057 22.1449L54.2799 10.5792H49.0723L55.1152 29.4208H59.7896L63.282 18.0048L66.7834 29.4208H71.4578L77.5007 10.5792H72.2931Z" fill="#1F1A17"/>
<path d="M89.2133 29.9494C90.5606 29.9515 91.8952 29.6911 93.1412 29.183C95.549 28.1826 97.464 26.2845 98.4732 23.8978C99.5156 21.3837 99.5156 18.5635 98.4732 16.0493C97.464 13.6626 95.549 11.7645 93.1412 10.7641C90.6241 9.74208 87.8025 9.74208 85.2854 10.7641C84.0922 11.2504 83.0079 11.9659 82.0951 12.8694C81.1842 13.7899 80.4655 14.8795 79.98 16.0758C78.9376 18.5899 78.9376 21.4101 79.98 23.9242C80.4795 25.1038 81.2071 26.1751 82.1217 27.0777C83.0346 27.9813 84.1189 28.6968 85.312 29.183C86.5493 29.6892 87.8748 29.9496 89.2133 29.9494ZM89.2133 25.2015C88.2796 25.2139 87.3595 24.9798 86.5473 24.5232C85.8008 24.0881 85.1867 23.4611 84.7699 22.7087C84.3149 21.8771 84.0766 20.946 84.0766 20C84.0766 19.054 84.3149 18.1229 84.7699 17.2913C85.1889 16.5382 85.8023 15.9089 86.5473 15.468C87.3602 15.014 88.2804 14.783 89.2133 14.7985C90.1457 14.7867 91.065 15.0176 91.8793 15.468C92.6458 15.902 93.281 16.5316 93.7188 17.2913C94.1677 18.1249 94.4025 19.0552 94.4025 20C94.4025 20.9448 94.1677 21.8751 93.7188 22.7087C93.2832 23.4679 92.6473 24.0952 91.8793 24.5232C91.0658 24.9767 90.1465 25.2106 89.2133 25.2015Z" fill="#1F1A17"/>
<path d="M107.644 13.8207V10.5704H102.738V29.4208H107.644V20.4096C107.631 19.5599 107.816 18.7187 108.186 17.952C108.509 17.3321 108.99 16.8067 109.581 16.4281C110.148 16.0631 110.782 15.8117 111.447 15.6882C112.098 15.5713 112.763 15.5505 113.42 15.6265V10.2004C112.626 10.1985 111.837 10.3234 111.083 10.5704C110.328 10.8133 109.635 11.2127 109.048 11.7419C108.423 12.3172 107.942 13.029 107.644 13.8207Z" fill="#1F1A17"/>
<path d="M133.798 29.4208L125.933 19.8899L133.567 10.5792H127.719L121.179 18.8681V3.04779H116.273V29.4208H121.179V20.8676L128.093 29.4208H133.798Z" fill="#1F1A17"/>
<path d="M147.101 15.2477V10.5704H142.809V5.28518L137.903 6.75622V10.5704H134.598V15.2389H137.903V23.0786C137.87 24.178 138.03 25.2748 138.374 26.3202C138.662 27.1636 139.202 27.9007 139.921 28.4343C140.768 29.0052 141.745 29.3566 142.764 29.4561C144.207 29.6119 145.662 29.5971 147.101 29.412V25.0077C146.399 25.0518 145.777 25.0694 145.244 25.0606C144.789 25.0605 144.338 24.9952 143.902 24.8668C143.565 24.7723 143.274 24.5594 143.084 24.2678C142.88 23.9087 142.785 23.4989 142.809 23.0874V15.2477H147.101Z" fill="#1F1A17"/>
<path d="M165.292 10.5704V12.7901C164.605 11.9319 163.725 11.2442 162.723 10.7818C161.59 10.2841 160.364 10.027 159.124 10.027C157.885 10.027 156.659 10.2841 155.525 10.7818C154.411 11.2784 153.41 11.9947 152.584 12.887C151.724 13.8033 151.049 14.8736 150.593 16.0405C149.61 18.5659 149.61 21.3637 150.593 23.889C151.049 25.056 151.724 26.1262 152.584 27.0425C153.404 27.9466 154.402 28.675 155.516 29.183C156.65 29.6807 157.876 29.9378 159.115 29.9378C160.355 29.9378 161.581 29.6807 162.715 29.183C163.718 28.7267 164.6 28.0452 165.292 27.1922V29.4208H170.197V10.5704H165.292ZM159.96 25.3072C159.027 25.3083 158.11 25.0749 157.294 24.6289C156.543 24.1831 155.929 23.5438 155.516 22.7791C155.061 21.9223 154.823 20.9684 154.823 20C154.823 19.0316 155.061 18.0777 155.516 17.2209C155.928 16.453 156.542 15.8105 157.294 15.3623C158.11 14.9162 159.027 14.6829 159.96 14.684C160.912 14.6763 161.852 14.9097 162.688 15.3623C163.474 15.7959 164.12 16.44 164.554 17.2209C165.009 18.0777 165.247 19.0316 165.247 20C165.247 20.9684 165.009 21.9223 164.554 22.7791C164.12 23.56 163.474 24.2041 162.688 24.6377C161.87 25.0802 160.954 25.3133 160.022 25.316L159.96 25.3072Z" fill="#1F1A17"/>
<path d="M185.731 10.0506C184.49 10.0286 183.258 10.2751 182.123 10.773C181.123 11.2386 180.249 11.9329 179.572 12.7989V10.5704H174.667V36.9963H179.572V27.1922C180.249 28.0582 181.123 28.7526 182.123 29.2182C183.258 29.7194 184.489 29.9689 185.731 29.9493C186.957 29.9427 188.168 29.6816 189.286 29.183C190.4 28.6822 191.403 27.9665 192.236 27.0777C193.099 26.1639 193.775 25.093 194.227 23.9242C195.21 21.3989 195.21 18.6011 194.227 16.0758C193.775 14.907 193.099 13.8361 192.236 12.9223C191.403 12.0335 190.4 11.3178 189.286 10.817C188.168 10.3184 186.957 10.0573 185.731 10.0506ZM184.842 25.316C183.91 25.3171 182.993 25.0838 182.176 24.6377C181.395 24.2009 180.752 23.5574 180.319 22.7791C179.864 21.9223 179.626 20.9684 179.626 20C179.626 19.0316 179.864 18.0777 180.319 17.2209C180.752 16.4426 181.395 15.799 182.176 15.3623C182.993 14.9162 183.91 14.6829 184.842 14.684C185.795 14.6763 186.734 14.9097 187.57 15.3623C188.356 15.7937 189 16.4385 189.428 17.2209C189.888 18.0761 190.129 19.0306 190.129 20C190.129 20.9694 189.888 21.9239 189.428 22.7791C188.987 23.5798 188.32 24.2351 187.508 24.6642C186.688 25.0974 185.772 25.3215 184.842 25.316Z" fill="#1F1A17"/>
</g>
<defs>
<linearGradient id="paint0_linear_1124_521" x1="31.6273" y1="36.9401" x2="8.72235" y2="2.67025" gradientUnits="userSpaceOnUse">
<stop stop-color="#00923F"/>
<stop offset="1" stop-color="#84C225"/>
</linearGradient>
<clipPath id="clip0_1124_521">
<rect width="195" height="40" fill="white"/>
</clipPath>
</defs>
</svg>
