<svg width="150" height="30" viewBox="0 0 150 30" fill="none" xmlns="http://www.w3.org/2000/svg">
<path d="M13.2065 3.63397C13.9402 2.14748 16.0598 2.14748 16.7935 3.63397L18.9431 7.98949C19.2344 8.57978 19.7975 8.98891 20.4489 9.08357L25.2555 9.78201C26.896 10.0204 27.551 12.0363 26.3639 13.1934L22.8859 16.5837C22.4145 17.0432 22.1994 17.7052 22.3107 18.354L23.1317 23.1411C23.412 24.7749 21.6971 26.0209 20.2298 25.2495L15.9307 22.9893C15.348 22.683 14.652 22.683 14.0693 22.9893L9.77017 25.2495C8.30291 26.0209 6.58805 24.7749 6.86827 23.1411L7.68933 18.354C7.80061 17.7052 7.58551 17.0432 7.11414 16.5837L3.63605 13.1934C2.44902 12.0363 3.10404 10.0204 4.74448 9.78201L9.55107 9.08357C10.2025 8.98891 10.7656 8.57978 11.057 7.98949L13.2065 3.63397Z" fill="#FBA457"/>
<path d="M43.2065 3.63397C43.9402 2.14748 46.0598 2.14748 46.7935 3.63397L48.9431 7.98949C49.2344 8.57978 49.7975 8.98891 50.4489 9.08357L55.2555 9.78201C56.896 10.0204 57.551 12.0363 56.3639 13.1934L52.8859 16.5837C52.4145 17.0432 52.1994 17.7052 52.3107 18.354L53.1317 23.1411C53.412 24.7749 51.6971 26.0209 50.2298 25.2495L45.9307 22.9893C45.348 22.683 44.652 22.683 44.0693 22.9893L39.7702 25.2495C38.3029 26.0209 36.588 24.7749 36.8683 23.1411L37.6893 18.354C37.8006 17.7052 37.5855 17.0432 37.1141 16.5837L33.6361 13.1934C32.449 12.0363 33.104 10.0204 34.7445 9.78201L39.5511 9.08357C40.2025 8.98891 40.7656 8.57978 41.057 7.98949L43.2065 3.63397Z" fill="#FBA457"/>
<path d="M73.2065 3.63397C73.9402 2.14748 76.0598 2.14748 76.7935 3.63397L78.9431 7.98949C79.2344 8.57978 79.7975 8.98891 80.4489 9.08357L85.2555 9.78201C86.896 10.0204 87.551 12.0363 86.3639 13.1934L82.8859 16.5837C82.4145 17.0432 82.1994 17.7052 82.3107 18.354L83.1317 23.1411C83.412 24.7749 81.6971 26.0209 80.2298 25.2495L75.9307 22.9893C75.348 22.683 74.652 22.683 74.0693 22.9893L69.7702 25.2495C68.3029 26.0209 66.588 24.7749 66.8683 23.1411L67.6893 18.354C67.8006 17.7052 67.5855 17.0432 67.1141 16.5837L63.6361 13.1934C62.449 12.0363 63.104 10.0204 64.7445 9.78201L69.5511 9.08357C70.2025 8.98891 70.7656 8.57978 71.057 7.98949L73.2065 3.63397Z" fill="#FBA457"/>
<path d="M103.207 3.63397C103.94 2.14748 106.06 2.14748 106.793 3.63397L108.943 7.98949C109.234 8.57978 109.798 8.98891 110.449 9.08357L115.256 9.78201C116.896 10.0204 117.551 12.0363 116.364 13.1934L112.886 16.5837C112.414 17.0432 112.199 17.7052 112.311 18.354L113.132 23.1411C113.412 24.7749 111.697 26.0209 110.23 25.2495L105.931 22.9893C105.348 22.683 104.652 22.683 104.069 22.9893L99.7702 25.2495C98.3029 26.0209 96.588 24.7749 96.8683 23.1411L97.6893 18.354C97.8006 17.7052 97.5855 17.0432 97.1141 16.5837L93.6361 13.1934C92.449 12.0363 93.104 10.0204 94.7445 9.78201L99.5511 9.08357C100.202 8.98891 100.766 8.57978 101.057 7.98949L103.207 3.63397Z" fill="#FBA457"/>
<path d="M133.207 3.63397C133.94 2.14748 136.06 2.14748 136.793 3.63397L138.943 7.98949C139.234 8.57978 139.798 8.98891 140.449 9.08357L145.256 9.78201C146.896 10.0204 147.551 12.0363 146.364 13.1934L142.886 16.5837C142.414 17.0432 142.199 17.7052 142.311 18.354L143.132 23.1411C143.412 24.7749 141.697 26.0209 140.23 25.2495L135.931 22.9893C135.348 22.683 134.652 22.683 134.069 22.9893L129.77 25.2495C128.303 26.0209 126.588 24.7749 126.868 23.1411L127.689 18.354C127.801 17.7052 127.586 17.0432 127.114 16.5837L123.636 13.1934C122.449 12.0363 123.104 10.0204 124.744 9.78201L129.551 9.08357C130.202 8.98891 130.766 8.57978 131.057 7.98949L133.207 3.63397Z" fill="#B0AAD0"/>
</svg>
