<svg width="50" height="50" viewBox="0 0 50 50" fill="none" xmlns="http://www.w3.org/2000/svg">
<g clip-path="url(#clip0_618_10433)">
<path d="M25 50C38.8071 50 50 38.8071 50 25C50 11.1929 38.8071 0 25 0C11.1929 0 0 11.1929 0 25C0 38.8071 11.1929 50 25 50Z" fill="#EAB14D"/>
<path d="M25.0002 0C24.5539 0 24.1104 0.012207 23.6699 0.0352539C36.8586 0.726855 47.3398 11.6392 47.3398 25C47.3398 38.3608 36.8586 49.2731 23.6699 49.9647C24.1104 49.9878 24.5539 50 25.0002 50C38.8073 50 50.0002 38.8071 50.0002 25C50.0002 11.1929 38.8073 0 25.0002 0Z" fill="#E49542"/>
<path d="M24.9997 44.4811C35.7589 44.4811 44.4809 35.7591 44.4809 25C44.4809 14.2408 35.7589 5.5188 24.9997 5.5188C14.2406 5.5188 5.51855 14.2408 5.51855 25C5.51855 35.7591 14.2406 44.4811 24.9997 44.4811Z" fill="#F4FBFF"/>
<path d="M25.0005 5.5188C24.4609 5.5188 23.9269 5.54175 23.3984 5.58472C33.4081 6.39956 41.2776 14.7803 41.2776 25C41.2776 35.2196 33.4081 43.6002 23.3984 44.4152C23.9269 44.4583 24.4609 44.4812 25.0005 44.4812C35.7597 44.4812 44.4816 35.7591 44.4816 25C44.4816 14.241 35.7597 5.5188 25.0005 5.5188Z" fill="#DAF1F4"/>
<path d="M25.0006 11.5148C24.5839 11.5148 24.2461 11.1771 24.2461 10.7604V9.65293C24.2461 9.23623 24.5839 8.89844 25.0006 8.89844C25.4173 8.89844 25.7552 9.23623 25.7552 9.65293V10.7604C25.7552 11.1771 25.4173 11.5148 25.0006 11.5148Z" fill="#2B4D66"/>
<path d="M35.028 15.7027C34.8348 15.7027 34.6418 15.629 34.4944 15.4818C34.1998 15.187 34.1998 14.7094 34.4945 14.4147L35.2776 13.6317C35.5722 13.3369 36.05 13.337 36.3447 13.6317C36.6393 13.9264 36.6393 14.404 36.3446 14.6987L35.5615 15.4818C35.4141 15.629 35.2211 15.7027 35.028 15.7027Z" fill="#2B4D66"/>
<path d="M40.2652 25.7546H39.1578C38.741 25.7546 38.4033 25.4168 38.4033 25.0001C38.4033 24.5834 38.7411 24.2456 39.1578 24.2456H40.2652C40.682 24.2456 41.0197 24.5834 41.0197 25.0001C41.0197 25.4168 40.6819 25.7546 40.2652 25.7546Z" fill="#2B4D66"/>
<path d="M35.7534 36.5658C35.5603 36.5658 35.3672 36.492 35.2198 36.3448L34.4368 35.5618C34.1422 35.267 34.1422 34.7894 34.4368 34.4946C34.7315 34.2 35.2091 34.2 35.504 34.4946L36.287 35.2776C36.5816 35.5723 36.5816 36.05 36.287 36.3448C36.1396 36.492 35.9464 36.5658 35.7534 36.5658Z" fill="#2B4D66"/>
<path d="M24.9176 41.02C24.5009 41.02 24.1631 40.6822 24.1631 40.2655V39.1581C24.1631 38.7413 24.5009 38.4036 24.9176 38.4036C25.3343 38.4036 25.6721 38.7414 25.6721 39.1581V40.2655C25.6721 40.6822 25.3343 41.02 24.9176 41.02Z" fill="#2B4D66"/>
<path d="M14.107 36.5077C13.914 36.5077 13.7208 36.434 13.5735 36.2866C13.2788 35.992 13.2789 35.5142 13.5735 35.2195L14.3567 34.4365C14.6514 34.142 15.129 34.1419 15.4237 34.4366C15.7184 34.7312 15.7184 35.209 15.4236 35.5037L14.6405 36.2867C14.4933 36.4341 14.3001 36.5077 14.107 36.5077Z" fill="#2B4D66"/>
<path d="M10.7604 25.6726H9.65293C9.23623 25.6726 8.89844 25.3348 8.89844 24.9181C8.89844 24.5014 9.23623 24.1636 9.65293 24.1636H10.7604C11.1771 24.1636 11.5148 24.5014 11.5148 24.9181C11.5149 25.3348 11.1771 25.6726 10.7604 25.6726Z" fill="#2B4D66"/>
<path d="M14.9478 15.6447C14.7547 15.6447 14.5616 15.571 14.4143 15.4237L13.6312 14.6406C13.3365 14.3459 13.3364 13.8683 13.6311 13.5736C13.9258 13.2789 14.4034 13.2788 14.6982 13.5735L15.4813 14.3566C15.7759 14.6512 15.776 15.1289 15.4814 15.4237C15.3339 15.5709 15.1408 15.6447 14.9478 15.6447Z" fill="#2B4D66"/>
<path d="M24.9996 25.7545H18.5914C18.1747 25.7545 17.8369 25.4166 17.8369 24.9999C17.8369 24.5832 18.1747 24.2454 18.5914 24.2454H24.245V14.6461C24.245 14.2294 24.5828 13.8916 24.9995 13.8916C25.4162 13.8916 25.754 14.2294 25.754 14.6461V24.9999C25.7541 25.4166 25.4163 25.7545 24.9996 25.7545Z" fill="#2B4D66"/>
<path d="M32.7406 29.7354C32.6244 29.7354 32.5066 29.7084 32.3962 29.6517L24.6548 25.6708C24.2841 25.4803 24.1382 25.0254 24.3288 24.6548C24.5193 24.2842 24.9742 24.1382 25.3449 24.3288L33.0863 28.3096C33.4569 28.5002 33.6029 28.9551 33.4123 29.3256C33.2784 29.5858 33.0143 29.7354 32.7406 29.7354Z" fill="#DA4A54"/>
<path d="M25.0002 27.0138C26.1124 27.0138 27.0141 26.1122 27.0141 24.9999C27.0141 23.8877 26.1124 22.9861 25.0002 22.9861C23.888 22.9861 22.9863 23.8877 22.9863 24.9999C22.9863 26.1122 23.888 27.0138 25.0002 27.0138Z" fill="#365E7D"/>
</g>
<defs>
<clipPath id="clip0_618_10433">
<rect width="50" height="50" fill="white"/>
</clipPath>
</defs>
</svg>
