<svg width="50" height="50" viewBox="0 0 50 50" fill="none" xmlns="http://www.w3.org/2000/svg">
<g clip-path="url(#clip0_618_10363)">
<path d="M47.024 33.8899L49.9551 15.1742C50.2599 13.275 48.9676 11.488 47.0683 11.1823L7.5165 4.83408C5.61728 4.52929 3.83037 5.82157 3.52558 7.72079L2.12012 16.4734V33.781L47.024 33.8899Z" fill="#146AA8"/>
<path d="M47.0689 11.1822L35.8353 9.37964C28.2905 20.9241 16.0937 28.9199 6.74023 33.7922L47.0244 33.8897L49.9556 15.1741C50.2604 13.2747 48.9681 11.4878 47.0689 11.1822Z" fill="#126099"/>
<path d="M3.48329 15.6025H43.541C45.4647 15.6025 47.0243 17.1622 47.0243 19.0858V41.7272C47.0243 43.6508 45.4647 45.2105 43.541 45.2105H3.48329C1.55966 45.2104 0 43.6508 0 41.7272V19.0858C0 17.1622 1.55966 15.6025 3.48329 15.6025Z" fill="#4398D1"/>
<path d="M43.5413 15.6025H42.8447C34.6241 30.1967 19.2638 40.2076 9.88672 45.2104H43.5413C45.465 45.2104 47.0246 43.6507 47.0246 41.7271V19.0858C47.0246 17.1622 45.465 15.6025 43.5413 15.6025Z" fill="#3E8CC7"/>
<path d="M13.0627 19.9568H4.35449V26.9234H13.0627V19.9568Z" fill="#FDB62F"/>
<path d="M6.96699 22.5693H4.35449V24.3109H6.96699V22.5693Z" fill="#FD7B2F"/>
<path d="M13.0627 22.5693H10.4502V24.3109H13.0627V22.5693Z" fill="#FD7B2F"/>
<path d="M38.316 40.8564C40.7207 40.8564 42.6701 38.907 42.6701 36.5023C42.6701 34.0976 40.7207 32.1482 38.316 32.1482C35.9113 32.1482 33.9619 34.0976 33.9619 36.5023C33.9619 38.907 35.9113 40.8564 38.316 40.8564Z" fill="#FDB62F"/>
<path d="M33.0914 40.8564C35.4961 40.8564 37.4455 38.907 37.4455 36.5023C37.4455 34.0976 35.4961 32.1482 33.0914 32.1482C30.6867 32.1482 28.7373 34.0976 28.7373 36.5023C28.7373 38.907 30.6867 40.8564 33.0914 40.8564Z" fill="#DE4C3C"/>
<path d="M8.70829 33.019H3.4834V34.7606H8.70829V33.019Z" fill="#87CED9"/>
<path d="M17.4163 33.019H12.1914V34.7606H17.4163V33.019Z" fill="#87CED9"/>
<path d="M26.1243 33.019H20.8994V34.7606H26.1243V33.019Z" fill="#87CED9"/>
<path d="M26.1248 38.2441H3.4834V39.9857H26.1248V38.2441Z" fill="#87CED9"/>
<path d="M32.2201 19.9568H30.4785V23.4401H32.2201V19.9568Z" fill="#87CED9"/>
<path d="M35.7035 19.9568H33.9619V23.4401H35.7035V19.9568Z" fill="#87CED9"/>
<path d="M39.1869 19.9568H37.4453V23.4401H39.1869V19.9568Z" fill="#87CED9"/>
<path d="M42.6703 19.9568H40.9287V23.4401H42.6703V19.9568Z" fill="#87CED9"/>
</g>
<defs>
<clipPath id="clip0_618_10363">
<rect width="50" height="50" fill="white"/>
</clipPath>
</defs>
</svg>
