<svg width="50" height="50" viewBox="0 0 50 50" fill="none" xmlns="http://www.w3.org/2000/svg">
<g clip-path="url(#clip0_618_10386)">
<path d="M47.7272 34.5455H2.27275C1.02275 34.5455 0 33.5228 0 32.2728V7.27275C0 6.02275 1.02275 5 2.27275 5H47.7273C48.9773 5 50.0001 6.02275 50.0001 7.27275V32.2728C50 33.5228 48.9772 34.5455 47.7272 34.5455Z" fill="#0E9347"/>
<path d="M42.0457 25.4546C39.432 25.4546 37.0457 26.7046 35.682 28.75C34.5457 28.1819 33.2957 27.7273 31.8185 27.7273C27.8412 27.7273 24.5457 30.6819 23.9775 34.5455H47.7276C48.8639 34.5455 49.773 33.7501 50.0003 32.6137C49.5457 28.6364 46.1366 25.4546 42.0457 25.4546Z" fill="#0D8944"/>
<path d="M43.1815 32.2728H6.81787C6.81787 29.7728 4.77246 27.7274 2.27246 27.7274V11.8184C4.77246 11.8184 6.81787 9.77295 6.81787 7.27295H43.1815C43.1815 9.77295 45.2269 11.8184 47.7269 11.8184V27.7274C45.2269 27.7274 43.1815 29.7728 43.1815 32.2728Z" fill="#3BB54A"/>
<path d="M42.0455 25.4546C39.4318 25.4546 37.0455 26.7046 35.6818 28.75C34.5455 28.1819 33.2955 27.7273 31.8183 27.7273C28.6364 27.7273 25.9092 29.5455 24.6592 32.2728H43.1819C43.1819 29.7728 45.1138 27.8409 47.6138 27.7273C46.1364 26.3637 44.2047 25.4546 42.0455 25.4546Z" fill="#0E9347"/>
<path d="M25.0001 29.9999C30.0209 29.9999 34.091 25.421 34.091 19.7727C34.091 14.1243 30.0209 9.54541 25.0001 9.54541C19.9793 9.54541 15.9092 14.1243 15.9092 19.7727C15.9092 25.421 19.9793 29.9999 25.0001 29.9999Z" fill="#0E9347"/>
<path d="M11.3636 22.0453C12.6188 22.0453 13.6363 21.0277 13.6363 19.7725C13.6363 18.5173 12.6188 17.4998 11.3636 17.4998C10.1084 17.4998 9.09082 18.5173 9.09082 19.7725C9.09082 21.0277 10.1084 22.0453 11.3636 22.0453Z" fill="#0E9347"/>
<path d="M38.636 22.0453C39.8912 22.0453 40.9088 21.0277 40.9088 19.7725C40.9088 18.5173 39.8912 17.4998 38.636 17.4998C37.3808 17.4998 36.3633 18.5173 36.3633 19.7725C36.3633 21.0277 37.3808 22.0453 38.636 22.0453Z" fill="#0E9347"/>
<path d="M26.1368 18.6365H23.8641C23.1822 18.6365 22.7277 18.1819 22.7277 17.5001C22.7277 16.8183 23.1823 16.3638 23.8641 16.3638H27.2731C27.955 16.3638 28.4095 15.9092 28.4095 15.2275C28.4095 14.5457 27.9549 14.0912 27.2731 14.0912H26.1368C26.1368 13.4093 25.6822 12.9548 25.0005 12.9548C24.3187 12.9548 23.8642 13.4094 23.8642 14.0912C21.9323 14.0912 20.4551 15.5684 20.4551 17.5002C20.4551 19.4321 21.9323 20.9093 23.8642 20.9093H26.1369C26.8187 20.9093 27.2732 21.3639 27.2732 22.0457C27.2732 22.7275 26.8187 23.182 26.1369 23.182H22.7278C22.046 23.182 21.5915 23.6366 21.5915 24.3183C21.5915 25.0001 22.0461 25.4546 22.7278 25.4546H23.8642C23.8642 26.1365 24.3188 26.591 25.0005 26.591C25.6823 26.591 26.1368 26.1364 26.1368 25.4546C28.0687 25.4546 29.5459 23.9774 29.5459 22.0456C29.5459 20.1137 28.0687 18.6365 26.1368 18.6365Z" fill="#89C763"/>
<path d="M29.5454 43.6365C33.9386 43.6365 37.5 40.0751 37.5 35.6819C37.5 31.2887 33.9386 27.7273 29.5454 27.7273C25.1522 27.7273 21.5908 31.2887 21.5908 35.6819C21.5908 40.0751 25.1522 43.6365 29.5454 43.6365Z" fill="#FFCA5D"/>
<path d="M39.773 41.3638C44.1662 41.3638 47.7275 37.8024 47.7275 33.4092C47.7275 29.016 44.1662 25.4546 39.773 25.4546C35.3798 25.4546 31.8184 29.016 31.8184 33.4092C31.8184 37.8024 35.3798 41.3638 39.773 41.3638Z" fill="#F6B545"/>
<path d="M39.773 25.4546C35.3411 25.4546 31.8184 28.9773 31.8184 33.4092C31.8184 37.841 35.3411 41.3638 39.773 41.3638C44.2048 41.3638 47.7275 37.841 47.7275 33.4092C47.7275 28.9773 44.2048 25.4546 39.773 25.4546ZM39.773 39.091C36.5911 39.091 34.0911 36.591 34.0911 33.4092C34.0911 30.2273 36.5911 27.7273 39.773 27.7273C42.9548 27.7273 45.4548 30.2273 45.4548 33.4092C45.4548 36.591 42.9548 39.091 39.773 39.091Z" fill="#FFCB5B"/>
<path d="M39.7725 41.2498C44.2043 41.3635 47.7271 37.7271 47.7271 33.4089H47.6134C47.0452 33.4089 46.5906 33.8635 46.4771 34.4317C46.2498 36.0226 45.4543 37.4998 44.318 38.5226C43.4089 39.4317 42.1589 39.9998 40.7952 40.2271C40.227 40.2271 39.7725 40.6817 39.7725 41.2498Z" fill="#F6B545"/>
<path d="M39.773 25.5683C35.3411 25.4546 31.8184 29.091 31.8184 33.4092H31.932C32.5002 33.4092 32.9548 32.9546 33.0684 32.3864C33.2956 30.7955 34.0911 29.3183 35.2274 28.2955C36.1365 27.3864 37.3865 26.8183 38.7502 26.5909C39.3184 26.591 39.773 26.1364 39.773 25.5683Z" fill="#FFE27A"/>
<path d="M34.8862 34.2045C34.8862 31.0227 37.3862 28.5227 40.5681 28.5227C41.9317 28.5227 43.1817 28.9773 44.2044 29.8864C43.0681 28.5227 41.5908 27.7273 39.7727 27.7273C36.5908 27.7273 34.0908 30.2273 34.0908 33.4091C34.0908 35.2273 34.8862 36.7045 36.1362 37.7273C35.3408 36.8182 34.8862 35.5682 34.8862 34.2045Z" fill="#F19920"/>
<path d="M43.1823 36.932C43.0686 36.932 42.955 36.932 42.8413 36.8183C42.6141 36.5911 42.6141 36.2501 42.8413 36.0229C43.5232 35.3411 43.8641 34.3183 43.8641 33.4092C43.8641 33.0683 44.0913 32.8411 44.4323 32.8411C44.7732 32.8411 45.0004 33.0683 45.0004 33.4092C45.0004 34.6592 44.5458 35.9092 43.7504 36.8183C43.5232 36.932 43.2958 36.932 43.1823 36.932Z" fill="#FFCB5B"/>
<path d="M39.773 36.8183C39.0912 36.8183 38.6367 36.3637 38.6367 35.682V31.1366C38.6367 30.4547 39.0913 30.0002 39.773 30.0002C40.4548 30.0002 40.9094 30.4548 40.9094 31.1366V35.682C40.9094 36.3637 40.4549 36.8183 39.773 36.8183Z" fill="#F19920"/>
<path d="M43.9771 40.1136C43.1817 37.2727 41.1362 35 38.5226 33.9773C38.068 31.3636 36.3635 29.091 34.2044 27.7273C32.8407 29.2045 31.9316 31.1364 31.9316 33.2955C31.9316 37.7273 35.4544 41.25 39.8862 41.25C41.3636 41.3636 42.7271 40.9091 43.9771 40.1136Z" fill="#F19920"/>
<path d="M36.1363 37.7272C35.3409 36.7045 34.7727 35.4545 34.7727 34.0909C34.7727 32.5 35.4545 31.0228 36.5908 30C36.3636 29.6591 36.1362 29.4318 35.909 29.2046C34.7727 30.2273 34.0908 31.7046 34.0908 33.4092C34.0909 35.2272 34.8863 36.7045 36.1363 37.7272Z" fill="#E78825"/>
<path d="M38.6367 34.0908V35.6817C38.6367 36.3636 39.0913 36.8181 39.773 36.8181C40.4548 36.8181 40.9094 36.3635 40.9094 35.6817V35.4545C40.2276 34.8862 39.4322 34.4317 38.6367 34.0908Z" fill="#E78825"/>
<path d="M43.9774 40.1134C43.7502 39.318 43.5229 38.6362 43.0684 37.9543C42.1593 38.6362 41.023 39.0907 39.773 39.0907C36.5911 39.0907 34.0911 36.5907 34.0911 33.4088C34.0911 31.7042 34.773 30.227 35.9093 29.2042C35.3411 28.6361 34.773 28.1815 34.0911 27.8406C32.7274 29.3178 31.8184 31.2497 31.8184 33.4087C31.8184 37.8406 35.3411 41.3633 39.773 41.3633C41.3639 41.3634 42.7274 40.9089 43.9774 40.1134Z" fill="#F6B545"/>
<path d="M43.6361 39.0911C42.8407 39.6592 41.818 40.0001 40.7952 40.2274C40.2271 40.3411 39.7725 40.7956 39.7725 41.3637C41.3634 41.3637 42.7271 40.9091 43.9771 40.1137C43.8635 39.7728 43.7498 39.432 43.6361 39.0911Z" fill="#F19920"/>
<path d="M34.0911 27.8408C32.7274 29.3181 31.8184 31.2499 31.8184 33.409H31.932C32.5002 33.409 32.9548 32.9544 33.0684 32.3862C33.2956 30.7953 34.0911 29.4316 35.1138 28.409C34.7729 28.2953 34.432 28.0681 34.0911 27.8408Z" fill="#FFCB5B"/>
<path d="M29.5454 43.6365C33.9386 43.6365 37.5 40.0751 37.5 35.6819C37.5 31.2887 33.9386 27.7273 29.5454 27.7273C25.1522 27.7273 21.5908 31.2887 21.5908 35.6819C21.5908 40.0751 25.1522 43.6365 29.5454 43.6365Z" fill="#F6B545"/>
<path d="M28.4092 41.3638C28.4092 42.1592 28.5229 42.841 28.7501 43.6365C28.9773 43.6365 29.3183 43.6365 29.5455 43.6365C33.9773 43.6365 37.5001 40.1138 37.5001 35.6819C37.5001 34.8865 37.3864 34.2047 37.1592 33.4092C36.9319 33.4092 36.591 33.4092 36.3638 33.4092C31.9319 33.4093 28.4092 36.932 28.4092 41.3638Z" fill="#F19920"/>
<path d="M29.5454 27.7273C25.1136 27.7273 21.5908 31.25 21.5908 35.6819C21.5908 40.1137 25.1136 43.6365 29.5454 43.6365C33.9772 43.6365 37.5 40.1136 37.5 35.6819C37.5 31.2501 33.9772 27.7273 29.5454 27.7273ZM29.5454 41.3636C26.3636 41.3636 23.8636 38.8636 23.8636 35.6818C23.8636 32.5 26.3636 30 29.5454 30C32.7272 30 35.2272 32.5 35.2272 35.6818C35.2272 38.8636 32.7272 41.3636 29.5454 41.3636Z" fill="#FFCB5B"/>
<path d="M29.5449 43.5227C33.9768 43.6364 37.4995 40 37.4995 35.6819H37.3858C36.8177 35.6819 36.3631 36.1365 36.2495 36.7046C36.0223 38.2956 35.2268 39.7728 34.0904 40.7956C33.1813 41.7046 31.9313 42.2728 30.5677 42.5001C29.9995 42.5 29.5449 42.9545 29.5449 43.5227Z" fill="#F6B545"/>
<path d="M29.5454 27.841C25.1136 27.7273 21.5908 31.3637 21.5908 35.6819H21.7045C22.2727 35.6819 22.7272 35.2273 22.8408 34.6591C23.0681 33.0682 23.8636 31.591 24.9999 30.5682C25.909 29.6591 27.159 29.091 28.5227 28.8636C29.0909 28.8636 29.5454 28.4091 29.5454 27.841Z" fill="#FFE27A"/>
<path d="M24.6588 36.4772C24.6588 33.2954 27.1588 30.7954 30.3406 30.7954C31.7043 30.7954 32.9543 31.25 33.977 32.1591C32.8406 30.7954 31.3633 30 29.5451 30C26.3633 30 23.8633 32.5 23.8633 35.6818C23.8633 37.5 24.6587 38.9772 25.9087 40C25.1134 39.0909 24.6588 37.8409 24.6588 36.4772Z" fill="#F19920"/>
<path d="M32.9547 39.2044C32.841 39.2044 32.7275 39.2044 32.6138 39.0908C32.3865 38.8635 32.3865 38.5226 32.6138 38.2954C33.2956 37.6135 33.6366 36.5908 33.6366 35.6817C33.6366 35.3408 33.8638 35.1135 34.2047 35.1135C34.5456 35.1135 34.7729 35.3408 34.7729 35.6817C34.7729 36.9317 34.3183 38.1817 33.5229 39.0908C33.2955 39.2044 33.0683 39.2044 32.9547 39.2044Z" fill="#FFCB5B"/>
<path d="M29.5455 39.091C28.8637 39.091 28.4092 38.6364 28.4092 37.9547V33.4093C28.4092 32.7274 28.8638 32.2729 29.5455 32.2729C30.2273 32.2729 30.6818 32.7275 30.6818 33.4093V37.9547C30.6819 38.6364 30.2273 39.091 29.5455 39.091Z" fill="#F19920"/>
<path d="M34.7728 33.5229C35 34.2047 35.2273 34.8865 35.2273 35.6819C35.2273 38.8638 32.7273 41.3638 29.5455 41.3638C29.2046 41.3638 28.7501 41.3638 28.4092 41.2501V41.3638C28.4092 42.1592 28.5229 42.841 28.7501 43.6365C28.9773 43.6365 29.3183 43.6365 29.5455 43.6365C33.9773 43.6365 37.5001 40.1138 37.5001 35.6819C37.5001 34.8865 37.3864 34.2047 37.1592 33.4092C36.9319 33.4092 36.591 33.4092 36.3638 33.4092C35.7954 33.4093 35.3409 33.4093 34.7728 33.5229Z" fill="#F6B545"/>
<path d="M35.227 50.4548C39.6202 50.4548 43.1816 46.8934 43.1816 42.5002C43.1816 38.107 39.6202 34.5457 35.227 34.5457C30.8339 34.5457 27.2725 38.107 27.2725 42.5002C27.2725 46.8934 30.8339 50.4548 35.227 50.4548Z" fill="#F6B545"/>
<path d="M35.227 34.5457C30.7952 34.5457 27.2725 38.0684 27.2725 42.5002C27.2725 46.9321 30.7952 50.4548 35.227 50.4548C39.6589 50.4548 43.1816 46.9321 43.1816 42.5002C43.1816 38.0684 39.6589 34.5457 35.227 34.5457ZM35.227 48.1821C32.0452 48.1821 29.5452 45.6821 29.5452 42.5002C29.5452 39.3184 32.0452 36.8184 35.227 36.8184C38.4089 36.8184 40.9089 39.3184 40.9089 42.5002C40.9089 45.6821 38.4089 48.1821 35.227 48.1821Z" fill="#FFCB5B"/>
<path d="M35.2275 50.3409C39.6594 50.4546 43.1821 46.8182 43.1821 42.5H43.0685C42.5003 42.5 42.0457 42.9546 41.9321 43.5228C41.7049 45.1137 40.9094 46.5909 39.773 47.6137C38.864 48.5227 37.614 49.0909 36.2503 49.3183C35.6821 49.3182 35.2275 49.7726 35.2275 50.3409Z" fill="#F6B545"/>
<path d="M35.227 34.6591C30.7952 34.5454 27.2725 38.1818 27.2725 42.5H27.3861C27.9543 42.5 28.4089 42.0454 28.5225 41.4772C28.7497 39.8863 29.5452 38.4091 30.6815 37.3863C31.5906 36.4773 32.8406 35.9091 34.2043 35.6817C34.7726 35.6818 35.227 35.2273 35.227 34.6591Z" fill="#FFE27A"/>
<path d="M30.3404 43.2954C30.3404 40.1135 32.8404 37.6135 36.0223 37.6135C37.3859 37.6135 38.6359 38.0681 39.6586 38.9772C38.5223 37.6135 37.0449 36.8181 35.2268 36.8181C32.0449 36.8181 29.5449 39.3181 29.5449 42.5C29.5449 44.3181 30.3403 45.7954 31.5903 46.8181C30.7949 45.909 30.3404 44.659 30.3404 43.2954Z" fill="#F19920"/>
<path d="M38.6364 46.0226C38.5227 46.0226 38.4091 46.0226 38.2954 45.9089C38.0682 45.6816 38.0682 45.3407 38.2954 45.1135C38.9773 44.4316 39.3182 43.4089 39.3182 42.4998C39.3182 42.1589 39.5454 41.9316 39.8864 41.9316C40.2273 41.9316 40.4545 42.1589 40.4545 42.4998C40.4545 43.7498 39.9999 44.9998 39.2045 45.9089C38.9773 46.0226 38.75 46.0226 38.6364 46.0226Z" fill="#FFCB5B"/>
<path d="M35.2271 45.9092C34.5453 45.9092 34.0908 45.4546 34.0908 44.7729V40.2274C34.0908 39.5456 34.5454 39.0911 35.2271 39.0911C35.909 39.0911 36.3635 39.5457 36.3635 40.2274V44.7728C36.3636 45.4546 35.909 45.9092 35.2271 45.9092Z" fill="#F19920"/>
</g>
<defs>
<clipPath id="clip0_618_10386">
<rect width="50" height="50" fill="white"/>
</clipPath>
</defs>
</svg>
