<svg width="151" height="31" viewBox="0 0 151 31" fill="none" xmlns="http://www.w3.org/2000/svg">
<path d="M13.9565 4.13397C14.6902 2.64748 16.8098 2.64748 17.5435 4.13397L19.6931 8.48949C19.9844 9.07978 20.5475 9.48891 21.1989 9.58357L26.0055 10.282C27.646 10.5204 28.301 12.5363 27.1139 13.6934L23.6359 17.0837C23.1645 17.5432 22.9494 18.2052 23.0607 18.854L23.8817 23.6411C24.162 25.2749 22.4471 26.5209 20.9798 25.7495L16.6807 23.4893C16.098 23.183 15.402 23.183 14.8193 23.4893L10.5202 25.7495C9.05291 26.5209 7.33805 25.2749 7.61827 23.6411L8.43933 18.854C8.55061 18.2052 8.33551 17.5432 7.86414 17.0837L4.38605 13.6934C3.19902 12.5363 3.85404 10.5204 5.49448 10.282L10.3011 9.58357C10.9525 9.48891 11.5156 9.07978 11.807 8.48949L13.9565 4.13397Z" fill="#FBA457"/>
<path d="M43.9565 4.13397C44.6902 2.64748 46.8098 2.64748 47.5435 4.13397L49.6931 8.48949C49.9844 9.07978 50.5475 9.48891 51.1989 9.58357L56.0055 10.282C57.646 10.5204 58.301 12.5363 57.1139 13.6934L53.6359 17.0837C53.1645 17.5432 52.9494 18.2052 53.0607 18.854L53.8817 23.6411C54.162 25.2749 52.4471 26.5209 50.9798 25.7495L46.6807 23.4893C46.098 23.183 45.402 23.183 44.8193 23.4893L40.5202 25.7495C39.0529 26.5209 37.338 25.2749 37.6183 23.6411L38.4393 18.854C38.5506 18.2052 38.3355 17.5432 37.8641 17.0837L34.3861 13.6934C33.199 12.5363 33.854 10.5204 35.4945 10.282L40.3011 9.58357C40.9525 9.48891 41.5156 9.07978 41.807 8.48949L43.9565 4.13397Z" fill="#FBA457"/>
<path d="M73.9565 4.13397C74.6902 2.64748 76.8098 2.64748 77.5435 4.13397L79.6931 8.48949C79.9844 9.07978 80.5475 9.48891 81.1989 9.58357L86.0055 10.282C87.646 10.5204 88.301 12.5363 87.1139 13.6934L83.6359 17.0837C83.1645 17.5432 82.9494 18.2052 83.0607 18.854L83.8817 23.6411C84.162 25.2749 82.4471 26.5209 80.9798 25.7495L76.6807 23.4893C76.098 23.183 75.402 23.183 74.8193 23.4893L70.5202 25.7495C69.0529 26.5209 67.338 25.2749 67.6183 23.6411L68.4393 18.854C68.5506 18.2052 68.3355 17.5432 67.8641 17.0837L64.3861 13.6934C63.199 12.5363 63.854 10.5204 65.4945 10.282L70.3011 9.58357C70.9525 9.48891 71.5156 9.07978 71.807 8.48949L73.9565 4.13397Z" fill="#FBA457"/>
<path d="M103.957 4.13397C104.69 2.64748 106.81 2.64748 107.543 4.13397L109.693 8.48949C109.984 9.07978 110.548 9.48891 111.199 9.58357L116.006 10.282C117.646 10.5204 118.301 12.5363 117.114 13.6934L113.636 17.0837C113.164 17.5432 112.949 18.2052 113.061 18.854L113.882 23.6411C114.162 25.2749 112.447 26.5209 110.98 25.7495L106.681 23.4893C106.098 23.183 105.402 23.183 104.819 23.4893L100.52 25.7495C99.0529 26.5209 97.338 25.2749 97.6183 23.6411L98.4393 18.854C98.5506 18.2052 98.3355 17.5432 97.8641 17.0837L94.3861 13.6934C93.199 12.5363 93.854 10.5204 95.4945 10.282L100.301 9.58357C100.952 9.48891 101.516 9.07978 101.807 8.48949L103.957 4.13397Z" fill="#FBA457"/>
<path d="M133.957 4.13397C134.69 2.64748 136.81 2.64748 137.543 4.13397L139.693 8.48949C139.984 9.07978 140.548 9.48891 141.199 9.58357L146.006 10.282C147.646 10.5204 148.301 12.5363 147.114 13.6934L143.636 17.0837C143.164 17.5432 142.949 18.2052 143.061 18.854L143.882 23.6411C144.162 25.2749 142.447 26.5209 140.98 25.7495L136.681 23.4893C136.098 23.183 135.402 23.183 134.819 23.4893L130.52 25.7495C129.053 26.5209 127.338 25.2749 127.618 23.6411L128.439 18.854C128.551 18.2052 128.336 17.5432 127.864 17.0837L124.386 13.6934C123.199 12.5363 123.854 10.5204 125.494 10.282L130.301 9.58357C130.952 9.48891 131.516 9.07978 131.807 8.48949L133.957 4.13397Z" fill="#B0AAD0"/>
</svg>
