<svg width="85" height="92" viewBox="0 0 85 92" fill="none" xmlns="http://www.w3.org/2000/svg">
<g filter="url(#filter0_f_618_10318)">
<rect x="20.9404" y="45.3235" width="43.2066" height="26.5887" fill="#FBA457" fill-opacity="0.5"/>
</g>
<rect x="20.9404" y="45.3235" width="43.2066" height="26.5887" fill="#FBA457"/>
<path d="M79.9502 75.4445H75.2793L75.7098 74.9316C77.9151 72.3054 78.6008 68.7895 77.5441 65.5271L73.3243 52.4981C72.2655 49.2293 69.6449 46.775 66.3141 45.9324L64.217 45.402C63.3931 44.2453 62.0981 43.4462 60.6137 43.2896L60.615 38.1004C60.6151 37.4285 60.0706 36.8839 59.399 36.8837C58.7273 36.8837 58.1825 37.428 58.1823 38.0997L58.181 43.2608H55.7523L52.7437 42.4999C51.9822 42.3071 51.4154 41.6807 51.2998 40.9038L50.6087 36.2617C53.3967 34.0669 55.4621 31.1104 56.0858 27.578H57.0892C57.4717 27.578 57.8399 27.516 58.1851 27.4031L58.1838 32.4035C58.1836 33.0754 58.7281 33.62 59.3998 33.6202C60.0715 33.6202 60.6162 33.0759 60.6164 32.4042C60.6171 31.4342 60.6205 20.0701 60.6205 16.3252C60.6281 7.55664 53.5343 0.455078 44.7641 0.455078H40.324L40.2719 0.45524C40.2624 0.45524 40.253 0.456052 40.2432 0.456052C31.5031 0.499382 24.4601 7.5904 24.4676 16.3245C24.4676 20.4094 24.4651 16.2123 24.4745 43.2894C22.9901 43.4462 21.6951 44.2451 20.8712 45.4019L18.7741 45.9322C15.4432 46.7748 12.8227 49.2292 11.7639 52.4979L7.54405 65.5269C6.48742 68.7895 7.17307 72.3052 9.37819 74.9313L9.80889 75.4443H5.13802C2.90483 75.4443 1.08789 77.2612 1.08789 79.4944C1.08789 81.7278 2.90466 83.5447 5.13802 83.5447H79.9503C82.1835 83.5447 84.0005 81.7278 84.0005 79.4946C84.0003 77.2614 82.1835 75.4445 79.9502 75.4445ZM71.0099 53.2473L75.2298 66.2763C76.0266 68.7363 75.5096 71.387 73.8468 73.3672L72.1029 75.4445H69.8619C70.1094 74.7797 70.2402 74.0709 70.2402 73.3442C70.2402 71.9534 69.1087 70.8219 67.718 70.8219H65.1581V48.3423C65.1581 48.2772 65.1557 48.2126 65.1532 48.148C65.3142 48.2319 69.5529 48.7488 71.0099 53.2473ZM67.7181 73.2546C67.7675 73.2546 67.8076 73.2947 67.8076 73.344C67.8076 74.1064 67.5651 74.8352 67.1234 75.4443H17.9648C17.5231 74.8351 17.2806 74.1062 17.2806 73.344C17.2806 73.2945 17.3207 73.2546 17.37 73.2546H67.7181ZM58.1859 24.0858C58.1649 24.6734 57.6817 25.1452 57.0892 25.1452H56.2769L56.2893 20.2148H57.0909C57.6873 20.2148 58.1732 20.6936 58.1867 21.2867L58.1859 24.0858ZM36.9394 6.28661C36.9394 4.42666 38.425 2.90849 40.2638 2.88934C40.284 2.88934 40.3039 2.88788 40.324 2.88788H44.7641C52.1872 2.88788 58.1943 8.89809 58.1878 16.3239L58.1875 17.7822C56.515 17.7822 53.3401 17.7822 48.3626 17.7822C42.0639 17.7822 36.9396 12.6577 36.9396 6.35899L36.9394 6.28661ZM37.3154 14.7106C39.8476 18.0517 43.8566 20.2148 48.3625 20.2148H53.8563L53.8433 25.4018C53.8433 29.5298 51.4261 32.6668 48.7008 34.6702C48.683 34.6802 45.4344 37.1523 42.5439 37.2328C39.8739 37.1583 36.5276 34.75 36.3898 34.6716C33.6634 32.6676 31.2446 29.5287 31.2446 25.3961C31.217 19.3096 31.2437 25.2023 31.215 18.8662C31.2123 18.244 31.7149 17.7389 32.3374 17.7389C34.5001 17.739 36.3797 16.5081 37.3154 14.7106ZM49.7339 43.2608H35.3542C35.788 42.6881 36.084 42.0064 36.1949 41.2621L36.7152 37.7675C38.9217 39.026 41.0692 39.6348 42.5181 39.6658C42.5269 39.6659 42.5355 39.6661 42.5443 39.6661C42.553 39.6661 42.5616 39.6659 42.5704 39.6658C44.0193 39.6348 46.1668 39.0262 48.3734 37.7675L48.8936 41.2621C49.0042 42.0064 49.3002 42.6881 49.7339 43.2608ZM27.9992 27.578H29.0029C29.6261 31.1069 31.6879 34.0639 34.4797 36.2617L33.7885 40.9038C33.673 41.6807 33.1061 42.3071 32.3448 42.4997L29.3359 43.2607H26.9072L26.9031 27.4031C27.2485 27.5162 27.6165 27.578 27.9992 27.578ZM26.9023 24.0858L26.9017 21.2867C26.9151 20.6936 27.401 20.2148 27.9974 20.2148H28.7885L28.8109 25.1452H27.9992C27.4065 25.1454 26.9232 24.6734 26.9023 24.0858ZM34.9732 3.99629C34.6735 4.70011 34.5068 5.47421 34.5068 6.28644C34.5232 6.45311 34.3921 8.76226 35.5144 11.537V12.1293C35.5144 13.881 34.0892 15.3062 32.3375 15.3062C30.7381 15.3062 29.4042 16.3541 28.9508 17.782H27.9974C27.6146 17.782 27.2462 17.844 26.9008 17.9573L26.9004 16.3231C26.8955 10.7512 30.2611 6.04497 34.9732 3.99629ZM9.85855 66.2765L14.0784 53.2475C15.5348 48.7509 19.771 48.2336 19.9351 48.1482C19.9327 48.2128 19.9302 48.2772 19.9302 48.3425L19.9301 61.2377C19.9301 61.9096 20.4747 61.2377 21.1464 61.2377C21.8183 61.2377 22.3627 61.9096 22.3627 61.2377L22.3629 48.3425C22.3629 46.8819 23.5511 45.6936 25.0117 45.6936H60.0768C61.5374 45.6936 62.7256 46.8819 62.7256 48.3425V70.8219H22.3627V61.2377C22.3627 60.5659 21.8181 60.0214 21.1464 60.0214C20.4746 60.0214 19.9301 60.5659 19.9301 61.2377V70.8219H17.3702C15.9794 70.8219 14.848 71.9534 14.848 73.3442C14.848 74.0709 14.9789 74.7799 15.2263 75.4445H12.9854L11.2414 73.367C9.57877 71.3872 9.06174 68.7363 9.85855 66.2765ZM79.9502 81.1119H5.13802C4.24611 81.1119 3.5207 80.3863 3.5207 79.4946C3.5207 78.6027 4.24627 77.8773 5.13802 77.8773H79.9503C80.8422 77.8773 81.5676 78.6028 81.5676 79.4946C81.5676 80.3863 80.8421 81.1119 79.9502 81.1119Z" fill="#222222"/>
<ellipse cx="42.5443" cy="58.2855" rx="3.32359" ry="3.32358" fill="#F6FAFD"/>
<path d="M42.5444 63.9617C45.6156 63.9617 48.1141 61.463 48.1141 58.3919C48.1141 55.3209 45.6156 52.822 42.5444 52.822C39.4731 52.822 36.9746 55.3207 36.9746 58.3918C36.9746 61.4629 39.4731 63.9617 42.5444 63.9617ZM42.5444 55.2548C44.2741 55.2548 45.6815 56.662 45.6815 58.3919C45.6815 60.1219 44.2741 61.5291 42.5444 61.5291C40.8146 61.5291 39.4072 60.1219 39.4072 58.3919C39.4072 56.662 40.8146 55.2548 42.5444 55.2548Z" fill="#222222"/>
<defs>
<filter id="filter0_f_618_10318" x="0.94043" y="25.3235" width="83.207" height="66.5886" filterUnits="userSpaceOnUse" color-interpolation-filters="sRGB">
<feFlood flood-opacity="0" result="BackgroundImageFix"/>
<feBlend mode="normal" in="SourceGraphic" in2="BackgroundImageFix" result="shape"/>
<feGaussianBlur stdDeviation="10" result="effect1_foregroundBlur_618_10318"/>
</filter>
</defs>
</svg>
